<svg xmlns="http://www.w3.org/2000/svg" width="3749.413" height="3710.32"><defs><linearGradient id="b" x1="0" x2="1" y1="0" y2="0" gradientTransform="scale(5227.345) rotate(84.003 1.472 2.432)" gradientUnits="userSpaceOnUse" spreadMethod="pad"><stop offset="0" style="stop-opacity:1;stop-color:#57aadc"/><stop offset="1" style="stop-opacity:1;stop-color:#8ed4f5"/></linearGradient><linearGradient id="d" x1="0" x2="1" y1="0" y2="0" gradientTransform="scale(5577.97) rotate(87.777 1.224 2.36)" gradientUnits="userSpaceOnUse" spreadMethod="pad"><stop offset="0" style="stop-opacity:1;stop-color:#83caef"/><stop offset="1" style="stop-opacity:1;stop-color:#caeef8"/></linearGradient><linearGradient id="f" x1="0" x2="1" y1="0" y2="0" gradientTransform="scale(4602.894) rotate(-5 37.68 -42.563)" gradientUnits="userSpaceOnUse" spreadMethod="pad"><stop offset="0" style="stop-opacity:1;stop-color:#c3e8f5"/><stop offset="1" style="stop-opacity:1;stop-color:#ecf9f9"/></linearGradient><linearGradient id="h" x1="0" x2="1" y1="0" y2="0" gradientTransform="scale(-7689.98) rotate(76.188 1.226 -2.704)" gradientUnits="userSpaceOnUse" spreadMethod="pad"><stop offset="0" style="stop-opacity:1;stop-color:#3c77c5"/><stop offset="1" style="stop-opacity:1;stop-color:#4696d7"/></linearGradient><clipPath id="a" clipPathUnits="userSpaceOnUse"><path d="M22342.2 8749.3c2.1-555.2-7-1113.3 10.1-1668.3-46.2-68.9-93.3-137.2-141.2-204.9-48-67.8-96.8-134.9-146.4-201.4-49.7-66.5-100.1-132.4-151.4-197.6-51.3-65.2-103.4-129.8-156.3-193.7-52.9-63.9-106.6-127.2-161.1-189.8-54.5-62.5-109.8-124.4-165.9-185.6-56.1-61.2-112.9-121.6-170.5-181.4-57.6-59.7-115.9-118.7-175-177-59-58.3-118.9-115.8-179.4-172.6a9713.07 9713.07 0 0 0-183.6-168c-62-55.2-124.6-109.7-187.9-163.3-63.3-53.7-127.3-106.5-191.9-158.6-64.6-52-129.9-103.2-195.8-153.6-66-50.4-132.5-100-199.6-148.7-67.2-48.8-135-96.6-203.4-143.7-68.4-47-137.3-93.1-206.8-138.4-215.9-141.9-463.7-316.2-703.4-411.3-61.9 4.4-127.9-39.4-182.3-67.1-79.1-4.9-370.1 285.7-482.8 341.6-228.7 113.6-467.9 81.6-679-55.9-49.2-32-92-77.2-148.3-95.8-62.6 41-33.4 367.3-54.6 456.9-2.3 9.7-4.9 19.2-7.3 28.8l-1 1208.6 19.4-89c14.8 114.1-11.4 229.6 11.5 342.3 4.9-16.1 7.5-26.6 18-40l30.9 5.8c7.4 12.1 10 17 19.2 29.3 68.3 91.5 293.4 181.7 403.8 195.6 297.2 37.5 622.1 5.8 922.7 12 91.1 1.8 196.4 29.3 284.8 12.1 112-21.9 321.9-126.7 413.3-195.2 165.9 101.2 326.9 224.7 483.5 340.2 681.3 502.4 1275.9 1071.4 1843.8 1697.7 164.4 181.3 457.9 607.3 613.9 730z"/></clipPath><clipPath id="c" clipPathUnits="userSpaceOnUse"><path d="M20522.4 11438c118.2-67.9 289.6-196.4 428.2-205.2 136.6-8.7 228.1 92 321.7 175.5 99.4-170.7 232.6-330.4 345.2-493.6 125.8-182.1 240.4-378.1 376.3-552.3 30.7-39.3 65.8-71.8 104.5-103.2 89.5 38.5 163.4 76.6 242.4 133.3 12.3-546.7 1.4-1096.1 1.5-1643.2-156-122.7-449.5-548.7-613.9-730-567.9-626.3-1162.5-1195.3-1843.8-1697.7-156.6-115.5-317.6-239-483.5-340.2-91.4 68.5-301.3 173.3-413.3 195.2-88.4 17.2-193.7-10.3-284.8-12.1-300.6-6.2-625.5 25.5-922.7-12-110.4-13.9-335.5-104.1-403.8-195.6-9.2-12.3-11.8-17.2-19.2-29.3l-30.9-5.8c-10.5 13.4-13.1 23.9-18 40-22.9-112.7 3.3-228.2-11.5-342.3l-19.4 89c-16.9 518.9-2.7 1042.9-3.5 1562.4 80.1-108.1 166.4-204.3 267-293.9 202.6-180.6 487.7-380.9 772.9-357.2 213 17.7 366.1 178.9 493.3 335.7 562.6 693.3 892.6 1708.3 1209.2 2535.7 165.7 433.1 358.4 883.4 460.1 1336.1 44.8 199.7 67.7 406.7 46 610.7z"/></clipPath><clipPath id="e" clipPathUnits="userSpaceOnUse"><path d="m17923.3 16898.6 4388.6-.1-4.4-3529.7c-258.5 385.1-543.3 751.3-803.3 1134.9l-717.8 1075.9c-148.1 221.5-294.6 505.2-495.2 679.6-216.9-13-760.8-430.3-961.5-564.9-82.6-53.3-438.3-243.1-454-327.1-9.5-51.3 32.4-130.5 55.8-175 89.7-170.6 208.2-333.7 312.1-496.6 210.8-333 424-664.5 639.4-994.5 174.3-263.6 361.6-523 512.1-801.1-263-183.3-1129.8-725.2-1286.2-910.9-54.7-64.9-71.1-135.1-92-215.1-181.4-143.8-376.5-268.2-569.8-395l-287.8 1580c-34 196.2-55.8 532.5-122.5 701.4-18.2 46.1-75.3 67.8-116.9 89.3z"/></clipPath><clipPath id="g" clipPathUnits="userSpaceOnUse"><path d="M10696.2 23233c285.5 130.1 564.6 280.5 843.8 423.6 763.8 391.7 1521.1 808.8 2294.9 1179.7l.5-2581c.7-540-8.8-1081.5 6.5-1621.3-107.9-28.4-213.7-59.9-316.4-103.9-630.7-270.2-1019-836-1263.7-1453.7-33.8 1.3-21.8 7.6-40.4-9.6-514.1-474.2-1037.6-1017.9-1516.2-1527.9-22.7 210.4-9 434.3-9.1 646.4l-.3 1198z"/></clipPath></defs><path d="m25726.5 11245.8-1013.7 1.5c-11.6-110.3-25-220.5-40.2-330.4-15.2-109.9-32.2-219.5-50.9-328.8-18.8-109.4-39.3-218.4-61.6-327.1-22.3-108.7-46.3-216.9-72.1-324.8-25.9-107.9-53.4-215.4-82.8-322.4-29.3-107-60.3-213.5-93.1-319.5s-67.3-211.4-103.5-316.3c-36.2-104.8-74.1-209.1-113.6-312.7-39.6-103.7-80.9-206.6-123.9-308.9-42.9-102.3-87.5-203.9-133.8-304.8-46.2-100.8-94.1-200.9-143.6-300.1-49.5-99.3-100.6-197.8-153.3-295.4-52.7-97.7-107-194.4-162.8-290.3-55.9-95.8-113.3-190.7-172.2-284.7-58.9-94-119.4-187.1-181.3-279.1-62-92-125.4-183-190.4-273-1621.8-2246.4-4162.8-3877.7-6908.9-4318.4-88.6-14.9-177.4-28.6-266.3-41.3-88.9-12.6-178-24.1-267.2-34.5-89.2-10.5-178.6-19.8-268-28-89.5-8.2-179-15.3-268.6-21.2-89.6-6-179.3-10.9-269.1-14.6-89.8-3.8-179.5-6.4-269.3-7.9-89.9-1.5-179.7-1.9-269.5-1.2-89.8.7-179.6 2.5-269.4 5.5-89.8 2.9-179.5 7-269.2 12.2-89.6 5.2-179.2 11.5-268.8 18.9-89.5 7.4-178.9 15.9-268.2 25.5-89.3 9.7-178.5 20.4-267.5 32.3-89.1 11.8-178 24.8-266.7 38.8-88.7 14.1-177.2 29.2-265.6 45.5-88.3 16.2-176.4 33.6-264.3 52-88 18.5-175.6 38-263 58.6-87.5 20.7-174.6 42.4-261.5 65.2-86.9 22.8-173.5 46.7-259.8 71.6-86.3 25-172.3 51-257.9 78-85.6 27.1-170.9 55.3-255.9 84.5-84.9 29.2-169.5 59.4-253.7 90.7-84.2 31.3-168 63.7-251.4 97.1-83.4 33.4-166.33 67.8-248.85 103.3-82.53 35.4-164.61 71.9-246.23 109.4-81.64 37.5-162.79 76-243.44 115.5-80.68 39.5-160.85 80-240.52 121.5-79.66 41.5-158.8 84-237.4 127.4-78.6 43.5-156.65 88-234.16 133.4-77.51 45.4-154.44 91.8-230.78 139.1s-152.09 95.6-227.24 144.8c-75.16 49.2-149.68 99.3-223.59 150.4-73.9 51-147.16 103-219.77 155.9-59.38 42.8-118.29 86.2-176.76 130.1-58.47 44-116.49 88.6-174.07 133.8-57.55 45.2-114.64 90.9-171.25 137.3-56.63 46.4-112.78 93.3-168.44 140.8-55.67 47.5-110.84 95.5-165.52 144.1-54.67 48.7-108.84 97.9-162.52 147.6-53.66 49.7-106.83 100-159.49 150.9-52.64 50.8-104.75 102.1-156.32 154-51.6 51.9-102.65 104.4-153.18 157.3-50.53 52.9-100.49 106.4-149.91 160.3-49.42 54-98.28 108.5-146.59 163.4-48.3 55-96.05 110.5-143.23 166.4-47.16 55.9-93.76 112.3-139.79 169.2-46.01 56.9-91.43 114.3-136.28 172.1-44.83 57.8-89.08 116.1-132.74 174.8-43.65 58.8-86.69 117.9-129.11 177.6-42.44 59.6-84.27 119.6-125.48 180.1-41.2 60.5-81.78 121.3-121.74 182.7-39.97 61.2-79.3 122.9-117.99 185.1-38.7 62-76.76 124.5-114.19 187.4-37.4 62.9-74.17 126.2-110.3 189.8a11111.5 11111.5 0 0 0-106.38 192c-34.83 64.4-68.98 129.1-102.46 194.2-33.49 65-66.31 130.4-98.46 196.2-32.14 65.7-63.61 131.8-94.41 198.1-30.79 66.4-60.9 133.1-90.32 200.1-29.45 67-58.19 134.3-86.22 201.9-28.06 67.6-55.42 135.4-82.08 203.6-26.66 68.1-52.62 136.5-77.87 205.2-25.27 68.7-49.83 137.6-73.67 206.8-23.87 69.2-47 138.6-69.41 208.2-22.43 69.7-44.15 139.6-65.15 209.6-163.3 552.3-268.69 1120.1-360.32 1687.9-316.3-.4-632.6-2.5-948.9-6.4-14.96 137.5-26.87 275.9-27.69 414.3l1357.59-.9c7.62-83.9 16.26-167.8 25.94-251.5 9.69-83.7 20.41-167.3 32.16-250.8 11.77-83.5 24.56-166.8 38.36-249.9 13.83-83.2 28.68-166.2 44.57-248.9a9921.33 9921.33 0 0 1 50.69-247.7c17.92-82.4 36.85-164.6 56.81-246.5 19.95-81.9 40.91-163.5 62.88-244.9 21.98-81.3 44.97-162.4 68.95-243.2 23.98-80.9 48.96-161.4 74.94-241.5 25.98-80.2 52.94-160.1 80.9-239.6 27.95-79.5 56.89-158.7 86.82-237.5 29.9-78.8 60.79-157.2 92.65-235.3 31.87-78 64.69-155.7 98.47-232.9 33.77-77.2 68.51-154 104.2-230.4 35.67-76.3 72.29-152.2 109.86-227.7 37.56-75.5 76.06-150.5 115.48-225s79.75-148.5 121.01-222c41.25-73.5 83.42-146.5 126.48-218.9 43.05-72.5 86.99-144.4 131.84-215.8 44.84-71.4 90.56-142.2 137.15-212.4 46.6-70.3 94.06-139.9 142.39-209 48.32-69.1 97.49-137.5 147.49-205.4 50.02-67.8 100.88-135 152.57-201.6 51.68-66.6 104.17-132.6 157.48-197.9 53.32-65.2 107.43-129.9 162.33-193.8 54.92-64 110.63-127.2 167.12-189.8 56.47-62.6 113.71-124.4 171.73-185.6 58.03-61.1 116.79-121.6 176.28-181.3 59.51-59.6 119.76-118.6 180.75-176.8 60.96-58.2 122.64-115.7 185.03-172.3 62.4-56.7 125.48-112.6 189.25-167.7 63.79-55.1 128.23-109.4 193.35-163 64.89-54.2 130.45-107.7 196.65-160.3 66.2-52.7 133.04-104.5 200.52-155.5 67.49-51 135.59-101.1 204.3-150.4 68.7-49.4 138.01-97.8 207.92-145.5 69.89-47.6 140.37-94.3 211.43-140.2 71.04-45.9 142.65-90.9 214.82-135 72.15-44.2 144.83-87.4 218.05-129.7 73.24-42.4 146.97-83.8 221.2-124.3 74.24-40.6 148.97-80.2 224.18-118.9 75.22-38.7 150.89-76.4 227.04-113.3 76.14-36.8 152.72-72.7 229.75-107.6 77.02-35 154.46-69 232.34-102 77.8-33.1 156.1-65.2 234.7-96.3 78.7-31.1 157.7-61.3 237.1-90.4 79.4-29.2 159.1-57.4 239.2-84.7 80.1-27.2 160.5-53.4 241.2-78.6 80.7-25.3 161.7-49.6 243.1-72.8 81.3-23.3 162.9-45.5 244.8-66.8 81.8-21.2 163.9-41.5 246.3-60.7 82.4-19.2 165-37.4 247.8-54.7 82.8-17.1 165.8-33.3 249-48.5 83.2-15.2 166.6-29.3 250.2-42.4 83.5-13.1 167.2-25.2 251.1-36.2 83.9-11.1 167.8-21.1 251.9-30.1s168.3-17 252.6-23.9c84.3-6.9 168.7-12.8 253.2-17.6 84.4-4.9 168.9-8.7 253.4-11.5 84.6-2.7 169.1-4.5 253.7-5.2 84.6-.7 169.1-.3 253.7 1.1 84.6 1.3 169.1 3.8 253.6 7.2 84.5 3.5 169 8 253.4 13.5 84.4 5.6 168.7 12.1 253 19.8 84.1 7.1 168.2 15.2 252.2 24.4s167.8 19.5 251.6 30.7c83.7 11.3 167.2 23.6 250.7 36.9 83.4 13.4 166.6 27.7 249.7 43.1 83.1 15.4 165.9 31.8 248.6 49.2 82.7 17.5 165.1 35.9 247.3 55.4 82.2 19.5 164.1 40 245.9 61.5 81.6 21.5 163.1 44 244.2 67.5 81.2 23.5 162 48 242.5 73.5 80.6 25.5 160.8 52 240.7 79.5 79.8 27.5 159.4 56 238.6 85.4 79.1 29.5 157.9 59.9 236.4 91.3 78.4 31.4 156.4 63.8 234 97.1 77.7 33.4 154.9 67.6 231.7 102.9 76.7 35.2 153.1 71.4 229 108.5 75.8 37.2 151.2 75.2 226.2 114.2 74.9 39 149.4 78.9 223.3 119.7 74 40.9 147.4 82.6 220.4 125.2 72.9 42.7 145.3 86.2 217.1 130.7 71.9 44.4 143.2 89.7 213.9 135.9 70.8 46.2 140.9 93.2 210.5 141.2 69.6 47.9 138.5 96.7 206.9 146.3 68.3 49.6 136.1 100.1 203.2 151.4 67.1 51.3 133.6 103.4 199.4 156.4 65.8 52.9 131 106.7 195.5 161.3 64.5 54.5 128.3 109.9 191.5 166 63.1 56.1 125.5 113 187.2 170.7 61.8 57.7 122.8 116.1 183.1 175.3 60.2 59.2 119.8 119.1 178.6 179.8 58.8 60.6 116.8 122 174.1 184.1 57.3 62.1 113.8 124.9 169.5 188.3 55.8 63.6 110.7 127.7 164.9 192.6 1084.7 1298.1 1863.9 2827.6 2170.8 4497.9 73.7 400.9 102.8 796.5 145.2 1200.2l1418.3.4c-3.6-141.6-5.2-284.7-24.6-425.2zM4258.37 12658.5l2.39 1853.9 2.02 7190 6390.92 3301.3 2266.4 1181.9c385.8 199.4 765.1 406 1160.9 585.5 13-366.2-8.5-733.9 8-1099.8-140.7-60.9-277.8-142.5-413.7-214.1-272.3-144.5-545.4-287.6-819.3-429.3-1090-561.9-2177-1129.6-3261.08-1703-808.91-423.4-1613.86-860-2427.02-1274.5-417.12-211.6-833.07-425.4-1247.85-641.4-219.63-114.9-447.11-224.2-658.06-354.3l9.34-13048.5c-462.1 973.4-755.73 1723.1-925.35 2792.2-98.73 622.2-88.54 1232.4-87.61 1860.1zm20566.43-172.1 3.2 708.5c-12.1 452-3.2 906.9 1 1359.1 112 127.9 185.6 304.7 236.6 465.3-77 36.4-155.6 68.4-234.3 100.8l-3.6 5.8c-36.8 107-8.9 1436.6-7.7 1644.6l-1.4 138.5c-30.1 815 18.7 1635.5-8 2451.5-33.1 322.3-7.8 672.3-7.6 997.6l-1.6 1955c-730.6 353.9-1443.5 741.5-2165.3 1112.5l-5825.6 3012.9-1731.5 893.6c-328.4 168.9-655.9 349.3-995.2 495.3-288.4-114.5-682.8-350.8-974.9-500.3l-2124.2-1079.6-7622.63-3932.7c-8.71-986 12.1-1972.7-4.53-2958.6-23.19-821.4 14.81-1644.1 1.9-2465.3l-1.96-120.3c-4.58-346.8-5.2-693.5-1.88-1040.3 1.24-146.4 39.27-456.7 1.06-582.2l-3.9-11.5c14.45-632.3-6.98-1265.2 12.33-1897.7l3.51-228.2 2.84-225.3c-188.57-80.5-389.67-167.1-566.21-271.4-161.55-25.4-342.21-12.4-506.3-12.7l-919.86-1.3c1.99-322.7 17.65-644.8 46.97-966.2 29.32-321.4 72.2-641 128.63-958.8 13.7-79.7 28.17-159.4 43.38-238.8 15.22-79.5 31.19-158.9 47.9-238.1 16.73-79.2 34.2-158.2 52.42-237 18.22-78.9 37.18-157.6 56.89-236.1 19.72-78.4 40.16-156.8 61.34-234.9 21.21-78.1 43.14-156 65.81-233.7 22.68-77.7 46.07-155.2 70.2-232.4 24.14-77.2 49.02-154.3 74.61-231.1 25.61-76.7 51.95-153.2 78.99-229.5 27.04-76.3 54.81-152.3 83.28-228.1 28.5-75.7 57.72-151.2 87.64-226.4 29.91-75.2 60.54-150.1 91.9-224.7 31.34-74.7 63.39-149 96.14-223s66.19-147.7 100.33-221.1c34.14-73.3 68.97-146.4 104.51-219.1 35.53-72.7 71.74-145.1 108.64-217.1 36.91-72.1 74.49-143.7 112.77-215 38.25-71.4 77.18-142.3 116.8-212.9 39.61-70.6 79.87-140.8 120.8-210.6 40.94-69.8 82.53-139.2 124.8-208.3 42.24-69 85.15-137.6 128.72-205.8 43.55-68.3 87.73-136 132.56-203.4 44.84-67.4 90.32-134.3 136.43-200.9 46.11-66.5 92.85-132.5 140.2-198.2 47.37-65.6 95.35-130.8 143.93-195.5 48.59-64.7 97.8-129 147.62-192.8 49.82-63.8 100.23-127.1 151.24-189.9 51.01-62.8 102.61-125.2 154.81-187 52.2-61.9 104.98-123.2 158.35-184.1 53.35-60.8 107.28-121.2 161.79-181 54.5-59.9 109.55-119.2 165.18-177.9 55.62-58.8 111.8-117.1 168.53-174.8 72.44-73.6 145.76-146.3 219.96-218.1 74.2-71.8 149.29-142.7 225.25-212.6 75.96-70 152.76-139 230.41-207.1 77.66-68 156.12-135.1 235.41-201.3 79.3-66.1 159.4-131.2 240.3-195.4 80.9-64.2 162.57-127.3 245.02-189.5 82.44-62.2 165.65-123.3 249.61-183.4 83.94-60.1 168.61-119.2 254.02-177.3 85.41-58 171.52-115 258.32-170.9 86.81-55.9 174.28-110.8 262.43-164.6 88.16-53.7 176.95-106.4 266.39-158 89.45-51.6 179.51-102.1 270.2-151.5 90.67-49.3 181.95-97.6 273.83-144.7 91.86-47.2 184.29-93.2 277.3-138 93.01-44.9 186.54-88.6 280.6-131.2 94.08-42.6 188.67-84 283.78-124.196 95.08-40.301 190.65-79.305 286.7-117.203 96.05-37.899 192.55-74.699 289.52-110.199 96.94-35.5 194.3-69.801 292.11-103 97.76-33.102 195.96-65 294.56-95.7 98.6-30.8 197.5-60.3 296.8-88.601 99.4-28.301 199-55.297 299-81.199 99.9-25.801 200.2-50.403 300.8-73.801 100.6-23.399 201.4-45.5 302.5-66.399 101.1-20.898 202.5-40.601 304.1-59 101.6-18.402 203.4-35.601 305.5-51.5 102-15.898 204.2-30.601 306.6-44 102.3-13.402 204.9-25.5 307.6-36.398 102.7-10.902 205.5-20.5 308.4-28.8a12238.69 12238.69 0 0 1 309-21.302c103.1-5.8 206.2-10.398 309.4-13.699 103.3-3.3 206.5-5.3 309.7-6.101a12652.276 12652.276 0 0 1 628.3 7.2 12633.84 12633.84 0 0 1 627.1 38.397c104.4 9.004 208.6 19.305 312.7 30.903 104.1 11.5 208 24.398 311.8 38.597 103.8 14.203 207.4 29.602 310.7 46.301 103.4 16.801 206.6 34.801 309.5 54.102 103 19.3 205.6 39.898 308.1 61.699 102.4 21.902 204.5 45 306.4 69.402 101.9 24.399 203.4 50.098 304.6 77 101.2 26.899 202.1 55.098 302.6 84.496 100.5 29.403 200.7 60.102 300.4 92 99.8 31.903 199.1 65.102 298 99.504 99 34.297 197.5 70 295.5 106.797a12218.81 12218.81 0 0 1 292.7 114.102c97.2 39.199 193.7 79.698 289.8 121.398 96.1 41.6 191.7 84.5 286.7 128.5 95.1 44 189.5 89.2 283.4 135.6 93.9 46.4 187.3 93.9 280 142.6 92.7 48.7 184.8 98.5 276.3 149.5s182.3 103.1 272.5 156.4c90.2 53.2 179.7 107.6 268.6 163 88.8 55.5 177 112.1 264.4 169.7 87.4 57.7 174.1 116.4 260.1 176.2 86 59.8 171.2 120.7 255.7 182.6 84.4 62 168.1 124.9 251 189 82.9 64 165 129 246.3 195.1 81.3 66 161.7 133.1 241.3 201.1 79.6 68 158.4 137.1 236.3 207.1s154.9 140.9 231.1 212.9c76.1 71.9 151.3 144.7 225.7 218.5 73.1 71.9 145.4 144.6 216.8 218.3 71.4 73.6 141.8 148.1 211.4 223.5 69.6 75.3 138.2 151.5 205.9 228.6 67.6 77.1 134.4 154.9 200.1 233.6 65.8 78.7 130.6 158.2 194.4 238.5 63.8 80.3 126.6 161.4 188.4 243.2 61.8 81.8 122.6 164.4 182.4 247.8 59.8 83.3 118.5 167.4 176.2 252.1 57.7 84.8 114.4 170.3 170 256.5 55.6 86.1 110.1 173 163.6 260.5s105.9 175.7 157.2 264.5c51.3 88.8 101.5 178.2 150.6 268.2 49.1 90.1 97.1 180.7 143.9 271.9 46.9 91.2 92.7 183 137.3 275.4 44.6 92.3 88.1 185.2 130.4 278.6 42.3 93.4 83.5 187.3 123.5 281.8 40 94.4 78.9 189.3 116.6 284.7 37.7 95.4 74.1 191.2 109.5 287.5 35.3 96.3 69.4 193 102.4 290.1 32.9 97.1 64.6 194.6 95.2 292.5 30.6 97.9 59.9 196.2 88 294.8 28.1 98.7 55.1 197.6 80.8 296.9 25.6 99.3 50.1 198.9 73.4 298.8 23.2 99.8 45.2 200 66 300.4 20.7 100.5 40.3 201.1 58.6 302.1 18.3 100.9 35.4 202 51.2 303.3 15.8 101.3 30.3 202.9 43.7 304.6 13.3 101.6 25.3 203.5 36.1 305.5 10.8 101.9 20.4 204 28.7 306.3 8.3 102.2 15.3 204.5 21.1 306.9 5.8 102.4 10.3 204.8 13.6 307.3 3.2 102.5 5.2 205.1 6 307.6-644.8 0-1289.4-5.6-1934.1-16.7" style="fill:#202d5b;fill-opacity:1;fill-rule:nonzero;stroke:none" transform="matrix(.13333 0 0 -.13333 0 3710.32)"/><path d="M25065.6 15019.3c482.6-202.5 950.1-438.6 1430.5-646.4 519.7-253.2 1042.6-499.8 1568.7-739.7-892.7-291.6-1751.2-641.1-2577.6-1091.1-198.9 211.5-396.7 423.1-610 620.4l-49.2 32.4c-12.1 452-3.2 906.9 1 1359.1 112 127.9 185.6 304.7 236.6 465.3" style="fill:#4ca1de;fill-opacity:1;fill-rule:nonzero;stroke:none" transform="matrix(.13333 0 0 -.13333 0 3710.32)"/><path d="M25065.6 15019.3c482.6-202.5 950.1-438.6 1430.5-646.4-210.2-194.9-473.7-351.7-703.1-525.5-262.5-199.1-510.7-420.1-779.5-610.4-43.3-30.6-86-57-136.3-74.5l-49.2 32.4c-12.1 452-3.2 906.9 1 1359.1 112 127.9 185.6 304.7 236.6 465.3" style="fill:#4186ce;fill-opacity:1;fill-rule:nonzero;stroke:none" transform="matrix(.13333 0 0 -.13333 0 3710.32)"/><path d="M1579.07 14354.3c584.97 266 1173.56 554.1 1773.69 782.3 14.45-632.3-6.98-1265.2 12.33-1897.7l3.51-228.2a56396.735 56396.735 0 0 1-826.5-361.2c-464.66 173.1-928.26 349-1390.8 527.7-386.179 148-776.452 292.8-1151.3 468l1579.07 709.1" style="fill:#4ca1de;fill-opacity:1;fill-rule:nonzero;stroke:none" transform="matrix(.13333 0 0 -.13333 0 3710.32)"/><path d="M1579.07 14354.3c584.97 266 1173.56 554.1 1773.69 782.3 14.45-632.3-6.98-1265.2 12.33-1897.7-438.49 252.9-853.58 541-1282.28 809.3-152.09 95.3-377.34 189.1-503.74 306.1" style="fill:#4186ce;fill-opacity:1;fill-rule:nonzero;stroke:none" transform="matrix(.13333 0 0 -.13333 0 3710.32)"/><path d="M280.129 17435.4c498.816-136.5 1015.951-207.1 1512.771-344.2 519.39-110.9 1040.53-234.8 1564.58-320.6-4.58-346.8-5.2-693.5-1.88-1040.3 1.24-146.4 39.27-456.7 1.06-582.2l-.79 199.6c-90.65-50-185.94-92.5-279.54-136.8-533.53-257.8-1090.35-468.3-1624.44-726.9-192.05 102.2-394.49 190.4-589.562 287.4-276.883 137.7-549.629 283.7-827.539 419.2 471.617 160.8 953.934 325.5 1409.411 527.9a43851.016 43851.016 0 0 1-1164.071 1716.9" style="fill:#4ca1de;fill-opacity:1;fill-rule:nonzero;stroke:none" transform="matrix(.13333 0 0 -.13333 0 3710.32)"/><path d="M1792.9 17091.2c519.39-110.9 1040.53-234.8 1564.58-320.6-4.58-346.8-5.2-693.5-1.88-1040.3 1.24-146.4 39.27-456.7 1.06-582.2l-.79 199.6c-90.65-50-185.94-92.5-279.54-136.8-106.47 103.4-217.36 322.6-300.91 451.3-175.36 269.8-354.51 537.1-537.47 801.8-118.14 169.6-371.68 459.7-445.05 627.2" style="fill:#4186ce;fill-opacity:1;fill-rule:nonzero;stroke:none" transform="matrix(.13333 0 0 -.13333 0 3710.32)"/><path d="M26234.4 17073.2c564.2 115.2 1142.5 206.2 1698.2 356.1-243.5-335.8-480.6-675.9-711.4-1020.5-129.7-190.9-273.3-381.1-387.4-581.3 430.5-159.8 859.4-323.7 1286.8-491.7-481.5-267.4-944.8-577.3-1430.2-834.8-497.2 214.1-998.4 431.9-1505.6 620.9-108.7 40.7-220 121.8-337 121.9-33.9-36.3-21.2-69.4-20.1-117.9-36.8 107-8.9 1436.6-7.7 1644.6 144.2 9.8 309.8 63.2 452.5 94.6 320.2 71.2 640.9 140.6 961.9 208.1" style="fill:#4ca1de;fill-opacity:1;fill-rule:nonzero;stroke:none" transform="matrix(.13333 0 0 -.13333 0 3710.32)"/><path d="M24820 16770.5c144.2 9.8 309.8 63.2 452.5 94.6 320.2 71.2 640.9 140.6 961.9 208.1-37.3-185.9-477.5-901.2-597.9-1117.2-153.9-276.3-304.4-554.3-451.7-834.1-108.7 40.7-220 121.8-337 121.9-33.9-36.3-21.2-69.4-20.1-117.9-36.8 107-8.9 1436.6-7.7 1644.6" style="fill:#4186ce;fill-opacity:1;fill-rule:nonzero;stroke:none" transform="matrix(.13333 0 0 -.13333 0 3710.32)"/><path d="M178.75 20893.3c252.953-94.7 506.703-233.9 750.656-351.6l1545.074-757.2c296.8-137.7 591.15-280.5 883.05-428.3-23.18-821.4 14.82-1644.1 1.91-2465.3l-408.53 88c-352.46 59.7-704.13 142.6-1053.99 216.5-275.19 658.8-590.29 1296.7-889.48 1944.3-270.729 586.1-524.276 1184.1-828.69 1753.6" style="fill:#4ca1de;fill-opacity:1;fill-rule:nonzero;stroke:none" transform="matrix(.13333 0 0 -.13333 0 3710.32)"/><path d="M2474.48 19784.5c296.8-137.7 591.15-280.5 883.05-428.3-23.18-821.4 14.82-1644.1 1.91-2465.3l-408.53 88c-45.9 374.9-523.78 2640.7-476.43 2805.6" style="fill:#4186ce;fill-opacity:1;fill-rule:nonzero;stroke:none" transform="matrix(.13333 0 0 -.13333 0 3710.32)"/><path d="M25602.9 19753.2c771.3 409.9 1577.7 773.1 2367.9 1145.8-215-369.3-378.2-776.3-551.6-1166.6-368.6-829.5-713.5-1677.7-1107.6-2494.9-392.3-97.3-791.2-208.9-1191-267.9-100.3-21.6-200.5-44.5-302-60.6-30.1 815 18.7 1635.5-8 2451.5 267.6 118.9 529.5 263 792.3 392.7" style="fill:#4ca1de;fill-opacity:1;fill-rule:nonzero;stroke:none" transform="matrix(.13333 0 0 -.13333 0 3710.32)"/><path d="M25602.9 19753.2c-1.5-254.8-100.6-640.9-147-907.7-108.5-624.9-203.7-1255.4-335.3-1875.9-100.3-21.6-200.5-44.5-302-60.6-30.1 815 18.7 1635.5-8 2451.5 267.6 118.9 529.5 263 792.3 392.7M17919.2 22964.5c88.7-44.8 176.9-90.6 264.7-137.3-90.7-89.7-179.4-180.1-265.4-274.3-2 137.2-1.8 274.4.7 411.6" style="fill:#4186ce;fill-opacity:1;fill-rule:nonzero;stroke:none" transform="matrix(.13333 0 0 -.13333 0 3710.32)"/><path d="M24831.3 15120.1c78.7-32.4 157.3-64.4 234.3-100.8-51-160.6-124.6-337.4-236.6-465.3-6 187.1-10 379.4 2.3 566.1" style="fill:#2e63b4;fill-opacity:1;fill-rule:nonzero;stroke:none" transform="matrix(.13333 0 0 -.13333 0 3710.32)"/><path d="m3371.44 12785.4.24-272.1c-185.52-.9-382.26-15.2-566.46.7 176.55 104.3 377.65 190.9 566.22 271.4" style="fill:#4186ce;fill-opacity:1;fill-rule:nonzero;stroke:none" transform="matrix(.13333 0 0 -.13333 0 3710.32)"/><path d="M20728.1 11931.5c65.1-62.4 176.4-216 202.3-301.8 12.9-42.6 11.9-58.3-7.3-97.8-64.1-38-123.8-17.2-192.3-2.5-115.6 34.1-220.1 89.2-322.5 151.9 100.5 90.3 211.9 169.1 319.8 250.2" style="fill:#2e63b4;fill-opacity:1;fill-rule:nonzero;stroke:none" transform="matrix(.13333 0 0 -.13333 0 3710.32)"/><path d="M12307.2 17817.3c61.4 8.3 123 17.9 184.7 24.5l108.3-382.9-654.1-2c109.9 125.7 236 249.7 361.1 360.4" style="fill:#bae2f3;fill-opacity:1;fill-rule:nonzero;stroke:none" transform="matrix(.13333 0 0 -.13333 0 3710.32)"/><path d="M11430.8 17454.5c212.4 259.8 452.2 497.8 674.9 749.1l-2.5-385.5c67.3.4 137 4.6 204-.8-125.1-110.7-251.2-234.7-361.1-360.4-166.5-19.9-347.6-5-515.3-2.4" style="fill:#4ca1de;fill-opacity:1;fill-rule:nonzero;stroke:none" transform="matrix(.13333 0 0 -.13333 0 3710.32)"/><path d="m17429.3 17923.5 21.5.9c42.2-55.5 19.8-420.4 19.3-510.5l-710.9 8.4c-34.3 126.6-62 255.6-92.3 383.3 255 37.1 508.5 72.7 762.4 117.9" style="fill:#bae2f3;fill-opacity:1;fill-rule:nonzero;stroke:none" transform="matrix(.13333 0 0 -.13333 0 3710.32)"/><path d="m15929.6 14325.4-12.1 24.4c101.5 12.7 1615.1-737.8 1834.8-847.8 170.7-640.2 335.4-1307.8 421.9-1964.6-226.8 616.1-371.2 1262-582 1883.7-311.5 148.9-606.9 330-917.4 479.9-215.5 173.8-506.7 280.9-745.2 424.4" style="fill:#fff;fill-opacity:1;fill-rule:nonzero;stroke:none" transform="matrix(.13333 0 0 -.13333 0 3710.32)"/><path d="M20343.7 12561.7c62.2-48.2 286.4-444.6 345.7-542.6l-316.9-251.4c-38.7 55.9-85.9 108.8-149.9 135.8-94.1 39.6-177.7 8.4-267.2-26.7-49.6-31.9-96.4-69.5-143.9-104.7-32.2 34.6-65.5 68.4-97.3 103.4-47.9 52.8-88.4 73.8-153.4 101.2l-23.6 9.9c162.3 167.4 590.5 428.4 806.5 575.1" style="fill:#70c1e7;fill-opacity:1;fill-rule:nonzero;stroke:none" transform="matrix(.13333 0 0 -.13333 0 3710.32)"/><path d="M10697.5 16908.3c287.4 40.9 826.9 2.7 1137.2-2.1-382.9-372.3-732.6-780.6-1137.3-1130.3-1.5 187-1.1 373.9 1.3 560.8l-1.2 571.6" style="fill:#4ca1de;fill-opacity:1;fill-rule:nonzero;stroke:none" transform="matrix(.13333 0 0 -.13333 0 3710.32)"/><path d="M10697.5 16908.3c192.4-20.6 395.6-9.1 589.3-8.3-187.6-183.9-378.7-405.6-588.1-563.3l-1.2 571.6" style="fill:#bae2f3;fill-opacity:1;fill-rule:nonzero;stroke:none" transform="matrix(.13333 0 0 -.13333 0 3710.32)"/><path d="M18114.5 6864.4c56.5 124.9 136.4 246.1 203.6 366 161 288.1 324.6 574.8 490.6 860 250.9 434.3 483.5 889 752.3 1311.3 59.9 94.2 146.9 244 241.6 306.6 27.4 18.1 36.5 15.1 66.9 10.4-454.6-991.3-953.3-1959.8-1496.2-2905.7-87.8 12.6-174.3 23.3-258.8 51.4" style="fill:#fff;fill-opacity:1;fill-rule:nonzero;stroke:none" transform="matrix(.13333 0 0 -.13333 0 3710.32)"/><path d="M9727.14 5309.8c50.94-20.7 228.69-274.4 283.46-334.9 69.6-77.1 144.9-145.4 224.4-212 133.1 50.7 256.2 117.2 392.8 161.4-237.3-210.7-529.4-377.2-797.81-545.8-121.29-76.9-241.2-155.8-359.72-236.8-144.74 254.8-296.41 505.4-455 751.9 242.53 129.8 479.82 268.5 711.87 416.2M17278.4 4499.9c2.4-9.6 5-19.1 7.3-28.8 21.2-89.6-8-415.9 54.6-456.9 56.3 18.6 99.1 63.8 148.3 95.8 211.1 137.5 450.3 169.5 679 55.9 112.7-55.9 403.7-346.5 482.8-341.6 54.4 27.7 120.4 71.5 182.3 67.1-262.2-209-1200.4-567.2-1547.7-691-5.2 433.1-7.4 866.3-6.6 1299.5M16574.5 18390.9c229.4 40 1181-142.8 1458.2-206.5-770-157.5-1519.4-238.3-2305.1-193.4-497.7 43.9-991.8 61.2-1486.8 138.5 769.5 36.2 1569 162.2 2333.7 261.4" style="fill:#4ca1de;fill-opacity:1;fill-rule:nonzero;stroke:none" transform="matrix(.13333 0 0 -.13333 0 3710.32)"/><path d="M10705.2 17538.9c478.6 510 1002.1 1053.7 1516.2 1527.9 18.6 17.2 6.6 10.9 40.4 9.6-87.6-292.9-135.6-567.9-156.1-872.8-222.7-251.3-462.5-489.3-674.9-749.1-128.8 1.3-650.4-29.7-725.1 23.8l-.5 60.6" style="fill:#bae2f3;fill-opacity:1;fill-rule:nonzero;stroke:none" transform="matrix(.13333 0 0 -.13333 0 3710.32)"/><path d="m10545.9 4780.7 15.4-12.5c23.9-148.6 6.9-323.7 6.8-475l-.8-952.2c-288 109-557.5 250-828.88 394.5-145.7 75.5-289.98 153.7-432.87 234.4 418.55 262.5 832.05 532.7 1240.35 810.8" style="fill:#70c1e7;fill-opacity:1;fill-rule:nonzero;stroke:none" transform="matrix(.13333 0 0 -.13333 0 3710.32)"/><path d="M10552.1 10117.4c35.6-117.3 11.8-1575.9 12.5-1820.4 1.1-445 24.3-896.7 8.2-1341.1-1.9-52.3-5.4-102-28.5-149.6l-16.3 4.8c-85.6 144.7-121.7 338-166.2 500.3-164.9 677.7-222.5 1374.3-536.96 2008.4 92.96 150.3 198.36 295.2 297.86 441.3 5.4.5 10.7 1 16.1 1.5 188.6 19.8 302.8 218.5 413.3 354.8" style="fill:#bae2f3;fill-opacity:1;fill-rule:nonzero;stroke:none" transform="matrix(.13333 0 0 -.13333 0 3710.32)"/><path d="M20056.6 11762.1c35.9-.4 68.6-1.2 103-13.2 65.3-22.8 120.6-106 148.3-165.3 158.8-339.3 38.5-841.5-89.6-1173.5-81.6-211.7-255.9-381.4-464.2-470-133.9-56.9-287.2-76.1-424.1-17.9-68.8 29.3-124.5 78.8-175.2 132.7-115.1 122.3-201.7 274.9-308.2 405.1-103.8 126.8-338.5 279.2-388 431.6-16 49.3-6.6 106.5 22 149.5 28.8 43.5 78.4 75.3 131 77.8 175.9 8.2 656.3-607.2 797.8-745.3l-92.4 186.2c-73.7 127-158.3 252.1-253.5 364.1-75.7 89.1-220.5 198-269.1 297.1-4.9 9.8-12.1 42.2-11.9 54.7.6 45.3 24.9 90.2 59.4 119.2 37.6 31.6 85.5 41.2 133.5 34.1 225-32.9 722.7-618.4 862.8-804.3-74.7 176.4-176.8 353.7-293.3 505.7-67.4 88-320.7 339.2-334.7 429.8-4 25.9 14.6 63.2 30.7 83.3 28.6 35.7 74.7 70.8 122.6 70.5 252.5-1.8 605.7-421.3 783.2-589.9-68.4 169.8-181.8 316.6-246.5 487.3 47.3 62.4 91.7 106.1 156.4 150.7" style="fill:#f1b528;fill-opacity:1;fill-rule:nonzero;stroke:none" transform="matrix(.13333 0 0 -.13333 0 3710.32)"/><path d="M13977.4 16664.6c69.2-22.8 131.1-45.7 193.9-83.9 0-15.7.4-31.4 1.6-47 46.9-628.2 310.1-1276.6 737.2-1740.7 145.1-157.6 309.2-290.5 474.4-425.9-54.1-81.6-115.6-158.2-175.6-235.6l-97.3 18c-361.3 64.9-666 345-985.6 517.6-287.6 155.2-585.5 287.4-893.5 396.5 57.8 305.7 47.2 616.8 28.9 925.4 266.5 90.2 403.6 263.7 560.6 483.8 48.6 68 91.5 137.1 155.4 191.8" style="fill:#f29613;fill-opacity:1;fill-rule:nonzero;stroke:none" transform="matrix(.13333 0 0 -.13333 0 3710.32)"/><path d="M16943.1 16884.1c175.6 6.5 352.4 3.7 528.1 4.6l.2-2940.5c-347.5 169.4-702.4 325.8-1052.3 490.6-195.5 94.7-823.3 315.2-896.1 493.8-17 41.7-10 53.7 3.6 94.2 132.7 139.4 483 60.2 673.5 104.3 639.9 148.3 274.9 808.8 481.2 1152.6l-36 220.2c109.7 61 311.8 144.1 388.5 238.2-36.2 40-59.9 77.3-83.2 126.2l-7.5 15.8" style="fill:#bae2f3;fill-opacity:1;fill-rule:nonzero;stroke:none" transform="matrix(.13333 0 0 -.13333 0 3710.32)"/><path d="M18850 9817.6c103.9-71.3 213.7-130 339.5-151.3 296.7-50.1 564.5 110.9 795.4 275.2l-115.4-222.8c-30.4 4.7-39.5 7.7-66.9-10.4-94.7-62.6-181.7-212.4-241.6-306.6-268.8-422.3-501.4-877-752.3-1311.3-166-285.2-329.6-571.9-490.6-860-67.2-119.9-147.1-241.1-203.6-366-24.4 18.8-48.3 38.1-71.7 57.9-309.4 262.6-623.6 816.8-657.6 1224.1 124.4 211.2 318.1 399.5 480.9 582.7l983.9 1088.5" style="fill:#f1b528;fill-opacity:1;fill-rule:nonzero;stroke:none" transform="matrix(.13333 0 0 -.13333 0 3710.32)"/><path d="M18394.4 10687.2c70.4-36.1 248.4-241.8 320.4-313.1-579.1-413.1-1188.7-793.7-1782.1-1186.5l-2845.3-1899.9c-594.1-396.4-1196.6-780.4-1780.5-1191.8-33.1 31-60.2 80-88.7 116.6-75.4 97-149.5 169.1-247.9 241.9 678.4 463.6 1377.3 900.2 2063.4 1352.6l4360.7 2880.2" style="fill:#fff;fill-opacity:1;fill-rule:nonzero;stroke:none" transform="matrix(.13333 0 0 -.13333 0 3710.32)"/><path d="M11834.7 16906.2c316.2 11.7 634.2 4.8 950.6 4.5 162.1-505.9 300.5-833.2 263.8-1379.8-9.5-140.6-22.8-289.7-56.6-426.8-706-20.1-1593.9-210.1-2294.2-361.8l-.9 1033.6c404.7 349.7 754.4 758 1137.3 1130.3M6459.81 11700.7c125.42 169 291.6 321.9 440.21 471.6a44388.86 44388.86 0 0 1 610.05 620.4c860.84 891.1 1738.68 1821.6 2644.23 2663.1l1.7-1011.6c-335.78-224.7-926.97-1177.3-1194.11-1545.8-293.78-405.3-603.73-797.5-891.16-1207.8l-1610.92 10.1M15299 20499.3c730.8 704.8 1429.4 1441.8 2162 2145.6-5.1-810.6 39.6-1627.1 6-2437l3.1-1761.6c-249.5 65-510.5 104.7-763.8 154.4-148.8 759.8-478.6 1282.6-1110.9 1725.2-98.1 36.1-205.2 119-296.4 173.4" style="fill:#bae2f3;fill-opacity:1;fill-rule:nonzero;stroke:none" transform="matrix(.13333 0 0 -.13333 0 3710.32)"/><path d="M15299 20499.3c730.8 704.8 1429.4 1441.8 2162 2145.6-5.1-810.6 39.6-1627.1 6-2437-23 219.4-9.4 456-10 677.3l-2.4 1258.5-1200.9-1188.9c-216.1-211.6-427.8-433.3-658.3-628.9-98.1 36.1-205.2 119-296.4 173.4" style="fill:#4ca1de;fill-opacity:1;fill-rule:nonzero;stroke:none" transform="matrix(.13333 0 0 -.13333 0 3710.32)"/><path d="M5826.79 8418.2c314.75-314.2 654.36-607.3 985.48-904.3C7540 6861.1 8273.51 6233.8 9064.88 5658.3c147.38-107.2 325.25-267 491.79-337.2-358.8-235.4-846.81-541.3-1224.09-733.9-741.4 517.4-1412.81 1166.8-1983.72 1866.4-181.71 222.7-344.9 459.8-521.08 686.9l-.99 1277.7" style="fill:#70c1e7;fill-opacity:1;fill-rule:nonzero;stroke:none" transform="matrix(.13333 0 0 -.13333 0 3710.32)"/><path d="M14654.1 17853.8c582.8-106.7 1202.2-95.1 1790.3-45.2 91.2-339.7 171-706.8 324.6-1024.5-115.7-40.6-233.3-78.8-346.6-126 11-111.4 35.8-238.8 5.6-347.8-37.4-40.3-160.5-38.2-160.5-81.2 33.1-23.3 64.6-40.8 100.8-58.5 13.4-203.8 65.7-545-72-711.6-59.2-71.6-159.1-96.1-247.8-102.5-412.2-29.8-1096.5 121.5-1417.6 398.8-188.7 163-283.1 392.5-371 619.2-25.4 65.6-47.7 149.6-88.6 206.2-62.8 38.2-124.7 61.1-193.9 83.9-110.1 152.1-162.6 321.2-130.5 510.1 17.2 100.7 61.6 211.7 147.9 272.9 38.1 27 80.4 40.3 127.3 32.2 94.3-16.2 151.4-82.4 201.3-157.8 5.4-118.6 1.8-352.9 93.4-437.6 3.5-3.3 22.3-12.9 27-15.3 23.8 26.9 34.1 56.7 39.3 91.9 46 315.7 33.4 586.8 171 892.8" style="fill:#f1b528;fill-opacity:1;fill-rule:nonzero;stroke:none" transform="matrix(.13333 0 0 -.13333 0 3710.32)"/><path d="M5822.61 12333.8c552.13 528.6 1078.81 1083.8 1614.49 1628.8l1479.38 1479.2c399.01 400.9 783.64 831.1 1208.72 1204.4l7.8-5.5 9.2-123.2c.3-162.6-8.6-332.3 3.2-494 8-189.3 8.7-378.3 8.9-567.7-905.55-841.5-1783.39-1772-2644.23-2663.1a44388.86 44388.86 0 0 0-610.05-620.4c-148.61-149.7-314.79-302.6-440.21-471.6-212.73-6.7-426.13 8.3-638.95-1.3-4.02 210.2-12.82 424.7 1.75 634.4" style="fill:#bae2f3;fill-opacity:1;fill-rule:nonzero;stroke:none" transform="matrix(.13333 0 0 -.13333 0 3710.32)"/><path d="M10145.4 16023.5c8-189.3 8.7-378.3 8.9-567.7-905.55-841.5-1783.39-1772-2644.23-2663.1a44388.86 44388.86 0 0 0-610.05-620.4c-148.61-149.7-314.79-302.6-440.21-471.6-212.73-6.7-426.13 8.3-638.95-1.3 67.11 14.3 100.12 44.1 148.55 89.1 333.14 309.8 634.6 657.5 955.71 980.2 1076.53 1081.9 2130.7 2185.7 3220.28 3254.8" style="fill:#4ca1de;fill-opacity:1;fill-rule:nonzero;stroke:none" transform="matrix(.13333 0 0 -.13333 0 3710.32)"/><path d="M20206.4 15885.9c106.1-113.9 261.5-401.2 358.3-545.7l1034.8-1541.2c350.1-513.9 707.1-1022.9 1071-1527 185.4-261 376.9-519.1 549.7-788.6-351-263.6-688.8-545.4-1028.3-823.5l-236 329.6c-266.5 377.9-546.8 746.3-810.3 1126 168-45.7 339.8-116.5 484-214.7-128.5 200.4-271.3 393.3-406.8 589.1-142.8 206.5-277.6 417.5-435.7 613-141.1 174.6-321.9 312.9-454.9 494.7-127.5 174.4-236.3 365.5-353.4 547.3l-721 1110.6 948.6 630.4" style="fill:#fff;fill-opacity:1;fill-rule:nonzero;stroke:none" transform="matrix(.13333 0 0 -.13333 0 3710.32)"/><path d="M17042.5 9087.6c29.6-137.2-20.2-506.2-30.2-661.5-49-765-106.5-1529.3-172.5-2293l-2777.2 1.8c-479.7-1-960.6-11.3-1440.1-.4l-8.7 8c31.3 55.8 4116.3 2767.5 4428.7 2945.1M12628.4 18123.7c1.9 125.9 10.9 251.3 27.1 376.1 16.2 124.9 39.4 248.4 69.7 370.6 141.8 565.7 453.1 1097.2 965.6 1398.7 192.4 113.2 552.6 254.1 772.7 197.6 495.1 26.4 966.8-154.2 1333.7-484.7 323.7-291.6 534.2-680 676.1-1087.1 30.3-86.9 69.1-182.3 75.8-274.2 1.7-22.9 6.3-64.5-10.1-81.5-16.6-17.2-33.9-20-56-26.4-145.6 15.3-754.7-83.9-950.2-103.6l-2904.4-285.5" style="fill:#4ca1de;fill-opacity:1;fill-rule:nonzero;stroke:none" transform="matrix(.13333 0 0 -.13333 0 3710.32)"/><path d="M14463.5 20466.7c495.1 26.4 966.8-154.2 1333.7-484.7 323.7-291.6 534.2-680 676.1-1087.1 30.3-86.9 69.1-182.3 75.8-274.2 1.7-22.9 6.3-64.5-10.1-81.5-16.6-17.2-33.9-20-56-26.4-67.7 92.3-112.2 216.7-165.8 319-166.8 317.9-371.3 633.8-652.1 863.1-582.9 475.8-1250.4 531.7-1967.1 462.2 249.3 123.3 492 249.2 765.5 309.6" style="fill:#fff;fill-opacity:1;fill-rule:nonzero;stroke:none" transform="matrix(.13333 0 0 -.13333 0 3710.32)"/><path d="M5829.51 11164.1c648.38-3 1306.01 24.5 1953.21-1.9-103.45-172.3-208.92-342.3-323.55-507.6-190.88-275.2-500.83-627.1-595.45-943-32.32-107.7-25-229.9 2.11-337.9 66.54-265.5 236.16-515.5 373.53-750.1 580.73-991.9 1222.19-1812 2096.54-2565.9 201.6-173.8 413.82-361.1 643.67-496.3-147.68-70.6-282.96-156.2-422.9-240.3-166.54 70.2-344.41 230-491.79 337.2C8273.51 6233.8 7540 6861.1 6812.27 7513.9c-331.12 297-670.73 590.1-985.48 904.3-3.87 915.3-2.97 1830.6 2.72 2745.9" style="fill:#bae2f3;fill-opacity:1;fill-rule:nonzero;stroke:none" transform="matrix(.13333 0 0 -.13333 0 3710.32)"/><path d="M14370.5 24829c736-394 1475.7-780.9 2219.2-1160.7 211.1-108.5 621.9-355.2 827.9-421 11.3-12.7 26.8-22.6 33.8-38.1 34.1-75.4 11-453.5 9.6-564.3-732.6-703.8-1431.2-1440.8-2162-2145.6-162 64.4-324.1 121.9-494 161.5-146.5 24.6-291.3 36.6-439.2 46.2-15.6 1373 4.9 2748.6 4.7 4122" style="fill:#4ca1de;fill-opacity:1;fill-rule:nonzero;stroke:none" transform="matrix(.13333 0 0 -.13333 0 3710.32)"/><path d="M17417.6 23247.3c11.3-12.7 26.8-22.6 33.8-38.1 34.1-75.4 11-453.5 9.6-564.3-732.6-703.8-1431.2-1440.8-2162-2145.6-162 64.4-324.1 121.9-494 161.5 107.1 133.7 246.7 255.5 368.4 377l771.9 766.7 901.2 903.9c164.3 165 377 426.9 571.1 538.9" style="fill:#bae2f3;fill-opacity:1;fill-rule:nonzero;stroke:none" transform="matrix(.13333 0 0 -.13333 0 3710.32)"/><g clip-path="url(#a)" transform="matrix(.13333 0 0 -.13333 0 3710.32)"><path d="M22342.2 8749.3c2.1-555.2-7-1113.3 10.1-1668.3-46.2-68.9-93.3-137.2-141.2-204.9-48-67.8-96.8-134.9-146.4-201.4-49.7-66.5-100.1-132.4-151.4-197.6-51.3-65.2-103.4-129.8-156.3-193.7-52.9-63.9-106.6-127.2-161.1-189.8-54.5-62.5-109.8-124.4-165.9-185.6-56.1-61.2-112.9-121.6-170.5-181.4-57.6-59.7-115.9-118.7-175-177-59-58.3-118.9-115.8-179.4-172.6a9713.07 9713.07 0 0 0-183.6-168c-62-55.2-124.6-109.7-187.9-163.3-63.3-53.7-127.3-106.5-191.9-158.6-64.6-52-129.9-103.2-195.8-153.6-66-50.4-132.5-100-199.6-148.7-67.2-48.8-135-96.6-203.4-143.7-68.4-47-137.3-93.1-206.8-138.4-215.9-141.9-463.7-316.2-703.4-411.3-61.9 4.4-127.9-39.4-182.3-67.1-79.1-4.9-370.1 285.7-482.8 341.6-228.7 113.6-467.9 81.6-679-55.9-49.2-32-92-77.2-148.3-95.8-62.6 41-33.4 367.3-54.6 456.9-2.3 9.7-4.9 19.2-7.3 28.8l-1 1208.6 19.4-89c14.8 114.1-11.4 229.6 11.5 342.3 4.9-16.1 7.5-26.6 18-40l30.9 5.8c7.4 12.1 10 17 19.2 29.3 68.3 91.5 293.4 181.7 403.8 195.6 297.2 37.5 622.1 5.8 922.7 12 91.1 1.8 196.4 29.3 284.8 12.1 112-21.9 321.9-126.7 413.3-195.2 165.9 101.2 326.9 224.7 483.5 340.2 681.3 502.4 1275.9 1071.4 1843.8 1697.7 164.4 181.3 457.9 607.3 613.9 730" style="fill:url(#b);fill-opacity:1;fill-rule:nonzero;stroke:none"/></g><path d="M17296.8 5619.5c14.8 114.1-11.4 229.6 11.5 342.3 4.9-16.1 7.5-26.6 18-40l30.9 5.8c7.4 12.1 10 17 19.2 29.3 68.3 91.5 293.4 181.7 403.8 195.6 297.2 37.5 622.1 5.8 922.7 12 91.1 1.8 196.4 29.3 284.8 12.1 112-21.9 321.9-126.7 413.3-195.2-472.7-331.5-985.4-593.2-1499.5-852.9-198.1-100.1-401.9-218.7-608.1-299-1.4 219.9-30.6 587.2 3.4 790" style="fill:#70c1e7;fill-opacity:1;fill-rule:nonzero;stroke:none" transform="matrix(.13333 0 0 -.13333 0 3710.32)"/><path d="m5819.14 16903.8 4332.06-.2c1.2-128.8-1.8-257.5-9-386.1l-9.2 123.2-7.8 5.5c-425.08-373.3-809.71-803.5-1208.72-1204.4L7437.1 13962.6c-535.68-545-1062.36-1100.2-1614.49-1628.8 16.6 1522.3-2.2 3047.4-3.47 4570" style="fill:#4ca1de;fill-opacity:1;fill-rule:nonzero;stroke:none" transform="matrix(.13333 0 0 -.13333 0 3710.32)"/><path d="M8391.23 11258.8c507.11-414.8 966.07-894.4 1456.29-1330-82.8-130.2-180.84-254.8-270.71-380.6-479.43 187.9-973.57 188-1479.96 147l-4.81-11.5-23.7 1 40.78-9.7c476.43-44.3 1042.98-112.4 1372.25-503.6 293.23-348.5 495.02-1378 630.73-1863.2 72.5-265.4 159-526.1 259.4-782.2 100.5 76.2 236.2 129.8 351.9 178.9 215.8 91.5 982.3 369 1198.4 258.5 34.6-17.7 60.1-39.8 70.7-78.5 70.3-256.8-444.6-277.9-540.9-425.7 48.6-50.6 299.5-54.7 385.2-85.3 240.3-85.6 395.9-313.3 502.4-534 55-114 113.9-269.5 61-393.8-16.2-38.1-28.9-48.8-66.6-63.3-46.7 10.9-78.7 38.4-107.3 76.2-54.3 72-96.2 161.1-141.6 239.4-129.2 222.5-286.4 423.5-521.7 537.7 55.7-100.8 130.2-195 193.1-291.7 91.3-140.4 380.9-581.4 323.1-746.7-12-34.3-26.9-60.1-63.3-72.5-24.3-8.3-72.3-7.6-95.1 6.4-129.7 79.9-387.8 595.2-665.9 778.1l-19.4 12.6c210-285.8 387.4-590.5 516-921.8-40.9-41.8-88.3-94.7-147-108.7-18.2-4.3-18.9-5.6-32.8 2.8-126.5 75.7-303.8 369-409.2 489.4a2302.94 2302.94 0 0 1-195.8 199.4c-69.3 62.5-142.1 120.6-218.5 174.3 163-219.3 565.6-720.4 627.7-964.3 8.7-34.3.6-64.9-15.8-95.7-24.7-46.4-56.8-66-105.1-82.1-38.2 2.1-61.1 10.1-91.6 32.3-161.4 117.4-271.8 321.2-412.5 464.2-193.2 196.4-434.2 337.1-622.5 537.8-154.37 164.5-293.46 345-439.77 516.8-326.31 383.2-648.57 766.8-964.23 1159-441.91 548.9-912.87 1103.4-1284.76 1703.1-83.65 134.9-183.17 300.5-207.47 459.8-14.69 96.2 35 200.8 79.38 283.6 103.09 192.5 252.79 370.8 382.08 546.9 230.72 314.6 463.25 627.8 697.6 939.7" style="fill:#f29613;fill-opacity:1;fill-rule:nonzero;stroke:none" transform="matrix(.13333 0 0 -.13333 0 3710.32)"/><path d="M8109.12 9675c476.43-44.3 1042.98-112.4 1372.25-503.6 293.23-348.5 495.02-1378 630.73-1863.2 72.5-265.4 159-526.1 259.4-782.2-6.2-60.2 4.9-66.2 21.4-120.3 10.9-35.4 11.2-47.1-9.2-76l-14.7 10c-1.3 4.8-2.6 9.6-4.1 14.4-29 97.4-92.5 188.9-135.2 282.1-101.8 222.2-195.6 449.2-288.98 675-200.67 484.8-375.52 1091.3-619.18 1541.7-20.96 39.5-43.77 77.8-68.44 115.1-24.67 37.2-51.08 73.2-79.24 107.9-28.15 34.7-57.92 67.9-89.29 99.7a1353.2 1353.2 0 0 1-98.5 90.7c-185.43 155.9-393.81 237.3-621.11 312.1-74.88 24.6-163.43 44.4-232.2 82.9-7.92 4.5-15.75 9.1-23.64 13.7" style="fill:#fff;fill-opacity:1;fill-rule:nonzero;stroke:none" transform="matrix(.13333 0 0 -.13333 0 3710.32)"/><g clip-path="url(#c)" transform="matrix(.13333 0 0 -.13333 0 3710.32)"><path d="M20522.4 11438c118.2-67.9 289.6-196.4 428.2-205.2 136.6-8.7 228.1 92 321.7 175.5 99.4-170.7 232.6-330.4 345.2-493.6 125.8-182.1 240.4-378.1 376.3-552.3 30.7-39.3 65.8-71.8 104.5-103.2 89.5 38.5 163.4 76.6 242.4 133.3 12.3-546.7 1.4-1096.1 1.5-1643.2-156-122.7-449.5-548.7-613.9-730-567.9-626.3-1162.5-1195.3-1843.8-1697.7-156.6-115.5-317.6-239-483.5-340.2-91.4 68.5-301.3 173.3-413.3 195.2-88.4 17.2-193.7-10.3-284.8-12.1-300.6-6.2-625.5 25.5-922.7-12-110.4-13.9-335.5-104.1-403.8-195.6-9.2-12.3-11.8-17.2-19.2-29.3l-30.9-5.8c-10.5 13.4-13.1 23.9-18 40-22.9-112.7 3.3-228.2-11.5-342.3l-19.4 89c-16.9 518.9-2.7 1042.9-3.5 1562.4 80.1-108.1 166.4-204.3 267-293.9 202.6-180.6 487.7-380.9 772.9-357.2 213 17.7 366.1 178.9 493.3 335.7 562.6 693.3 892.6 1708.3 1209.2 2535.7 165.7 433.1 358.4 883.4 460.1 1336.1 44.8 199.7 67.7 406.7 46 610.7" style="fill:url(#d);fill-opacity:1;fill-rule:nonzero;stroke:none"/></g><g clip-path="url(#e)" transform="matrix(.13333 0 0 -.13333 0 3710.32)"><path d="m17923.3 16898.6 4388.6-.1-4.4-3529.7c-258.5 385.1-543.3 751.3-803.3 1134.9l-717.8 1075.9c-148.1 221.5-294.6 505.2-495.2 679.6-216.9-13-760.8-430.3-961.5-564.9-82.6-53.3-438.3-243.1-454-327.1-9.5-51.3 32.4-130.5 55.8-175 89.7-170.6 208.2-333.7 312.1-496.6 210.8-333 424-664.5 639.4-994.5 174.3-263.6 361.6-523 512.1-801.1-263-183.3-1129.8-725.2-1286.2-910.9-54.7-64.9-71.1-135.1-92-215.1-181.4-143.8-376.5-268.2-569.8-395l-287.8 1580c-34 196.2-55.8 532.5-122.5 701.4-18.2 46.1-75.3 67.8-116.9 89.3l3.4 3148.9" style="fill:url(#f);fill-opacity:1;fill-rule:nonzero;stroke:none"/></g><g clip-path="url(#g)" transform="matrix(.13333 0 0 -.13333 0 3710.32)"><path d="M10696.2 23233c285.5 130.1 564.6 280.5 843.8 423.6 763.8 391.7 1521.1 808.8 2294.9 1179.7l.5-2581c.7-540-8.8-1081.5 6.5-1621.3-107.9-28.4-213.7-59.9-316.4-103.9-630.7-270.2-1019-836-1263.7-1453.7-33.8 1.3-21.8 7.6-40.4-9.6-514.1-474.2-1037.6-1017.9-1516.2-1527.9-22.7 210.4-9 434.3-9.1 646.4l-.3 1198 .4 3849.7" style="fill:url(#h);fill-opacity:1;fill-rule:nonzero;stroke:none"/></g><path d="M12312 22645.3c66.3-141.6 46.3-320.5 169.6-478 110.1-140.6 356.5-180.7 523.6-202.5-147.6-40.9-319-64.1-446.1-153.2-166.1-116.4-216.6-355.6-245.9-543.7l-11-12.2c-35.3 151.9-72.2 333.1-166.8 460.5-128.9 173.3-368.5 201.4-566.4 235.4 157.5 24.9 323.9 46.3 459.8 136.4 194.4 128.9 236.6 345.2 283.2 557.3" style="fill:#fff;fill-opacity:1;fill-rule:nonzero;stroke:none" transform="matrix(.13333 0 0 -.13333 0 3710.32)"/><path d="m10109.3 22918.7 24.2-11.6c20.1-170.4 6-356 7.6-528.1l9.5-1098.8 5.6-3841.2-4283.7 16.7-35.65 9.4c-30.92 83.5-16.17 2940.6-17.05 3229.9 634.84 309.3 1252.63 653.7 1878.15 981.1l2411.35 1242.6" style="fill:#4186ce;fill-opacity:1;fill-rule:nonzero;stroke:none" transform="matrix(.13333 0 0 -.13333 0 3710.32)"/><path d="M7603.03 20472c66.42-290.5 71.08-566 222.38-833.7 237.91-420.9 694.81-395.5 1100.63-509.8l15.14-4.4c-309.47-34.1-662.22-76.2-917.04-272.9-310.1-239.3-353.54-664.2-399.89-1023.6l-1.66-11.1c-73.97 311.6-78.08 630.8-281.96 898.6-234.07 307.3-673.68 355.8-1029.8 410.5 290.79 49.1 612.71 88.7 859.55 263.1 378.51 267.4 355.17 662 429.75 1068.1l2.9 15.2" style="fill:#fff;fill-opacity:1;fill-rule:nonzero;stroke:none" transform="matrix(.13333 0 0 -.13333 0 3710.32)"/><path d="m18183.9 22827.2 2937.3-1550.7c395.5-208.2 786-430 1185.9-629.5l.2-3232.1-4370 2.9-.1 627.7c211.5 53.6 416.4 112.9 620.3 191.8-208.6 39.7-424.7 98.1-635.3 119.5 1 1398.2 12.5 2798-3.7 4196.1 86 94.2 174.7 184.6 265.4 274.3" style="fill:#bae2f3;fill-opacity:1;fill-rule:nonzero;stroke:none" transform="matrix(.13333 0 0 -.13333 0 3710.32)"/><path d="M18851.5 21861.3c68.8-89 72-352.7 207-522.4 152.5-191.9 399.9-227.5 627.7-250.9-186.4-22.5-390-45.8-544.7-161.9-182.1-136.8-249-366.5-275.3-582.6l-14.3-.4c-15.7 205.3-46.2 325.3-175.5 490.6-152.2 194.5-384.6 211.7-612.1 236.5 189.4 37.7 416.3 63.7 567.7 195.2 161.1 139.9 205.1 392.8 219.5 595.9" style="fill:#fff;fill-opacity:1;fill-rule:nonzero;stroke:none" transform="matrix(.13333 0 0 -.13333 0 3710.32)"/><path d="m14081 26771.1 6725.3-3480.2c1020.9-532.2 2058.8-1037.3 3071.4-1584.6l-4.8-7425.8 2.7-2046.9c.5-541.3 18.7-1090.1-65-1626.2-147.2-942.8-491.4-1813.7-930.2-2655.8-18.7 941.3-9.1 1885.1-11.4 2826.7 68.6 55.8 762.5 595.5 765.1 634.4 10.5 158.8-646.8 963.5-766.1 1166.7l2.6 5559.6-.6 1970.6c.5 330.3-10.4 665.1 4.2 995-872.7 474.8-1761.8 922.8-2643.8 1380.3L16884 24222.2l-1797.1 930.5c-330.1 172.9-659.5 363.2-997.9 518.6-16.5 365.9 5 733.6-8 1099.8" style="fill:#f1b528;fill-opacity:1;fill-rule:nonzero;stroke:none" transform="matrix(.13333 0 0 -.13333 0 3710.32)"/><path d="M10963.2 14533.8c300.4 47.3 601.4 91.1 902.9 131.3 154.7-182.4 310.6-362.6 440.9-563.8 382.4-590.2 605.2-1346.7 717.2-2039.3l3064.3 2-158.9 2261.4c238.5-143.5 529.7-250.6 745.2-424.4 39.7-310.7 49.6-627.4 75.5-939.7 24.7-297.2 68-598.4 71-896.4l16.3 1.3c95.1 7.3 286.3 42 361.3-32.2 51-50.4-92.6-1822.7-111.3-2067.4-341.7-223.7-671.7-462.6-1010.4-690.4l-2054.4-1368.4c-624.7-418.4-1252.2-846.4-1903.7-1222 4.2 119.2 16.4 267-75.8 358.8-88.1 87.8-214.1 78.1-327.8 74.2-15.5 996.4-5.4 1994.4-6.2 2991-.6 608.6-25.7 1225.9.5 1833.6 34 44.2 74.2 81 114.5 119.4 129.3 7.5 261.1.4 390.6-1.6-24.5 246.3-73.3 493.2-133.1 733.2-175.3 702.8-478.3 1354.7-1118.6 1739.4" style="fill:#4ca1de;fill-opacity:1;fill-rule:nonzero;stroke:none" transform="matrix(.13333 0 0 -.13333 0 3710.32)"/><path d="M15713.1 9692.9c-314.5 209.4-587.6 487.2-671.1 866.3-15.1 68.6-58.2 237.1-20.7 296.4 46.8 20.7 93.5 6.9 142.1-.9 20.3-313.7 97-571.4 338.9-785.8 71.9-63.6 152.8-119.3 234.6-169.6 239.4 120.5 411.4 264.8 499.5 529.7 45.1 135.9 68.3 285.7 73.6 428.5 43.5-4.1 82.2 3.7 111.8-30.1 25.3-127.3-16.8-274.3-54.4-396.4-106.9-347.1-338.5-568.5-654.3-738.1M14991.5 11308l1465.7 2.8c-.7-136.1 4.5-275.7-15.2-410.6-220.7 1.3-441.7-12.6-662.4-9.7-262.8 3.4-525 23.5-788.1 18.2v399.3" style="fill:#fff;fill-opacity:1;fill-rule:nonzero;stroke:none" transform="matrix(.13333 0 0 -.13333 0 3710.32)"/><path d="M15163.4 10854.7c385.3-11.2 761.5-7.6 1146.6 2.8-5.3-142.8-28.5-292.6-73.6-428.5-88.1-264.9-260.1-409.2-499.5-529.7-81.8 50.3-162.7 106-234.6 169.6-241.9 214.4-318.6 472.1-338.9 785.8" style="fill:#f1b528;fill-opacity:1;fill-rule:nonzero;stroke:none" transform="matrix(.13333 0 0 -.13333 0 3710.32)"/><path d="m24712.8 11247.3 1013.7-1.5c-24-323.8-89.2-647.6-152.1-965.6-351-1774.3-1135.8-3400-2237.3-4829.9-57.7-74.8-116.4-148.8-175.9-222.1-59.6-73.3-120-145.9-181.3-217.8-61.3-71.8-123.5-142.9-186.6-213.2-63-70.3-127-139.9-191.7-208.7-64.8-68.7-130.4-136.7-196.8-203.8-66.4-67.2-133.6-133.6-201.7-199.1-68-65.5-136.8-130.2-206.5-194-69.6-63.8-140-126.8-211.1-188.9-71.2-62.1-143.1-123.4-215.7-183.7-72.7-60.4-146.1-119.9-220.2-178.5-74.1-58.5-148.9-116.2-224.4-172.9-75.5-56.8-151.7-112.6-228.6-167.5-76.9-54.8-154.4-108.8-232.6-161.7-78.2-53-157-105.1-236.5-156.1-79.5-51.1-159.6-101.2-240.2-150.3-80.7-49.1-162-97.2-243.9-144.3-81.9-47.1-164.3-93.2-247.3-138.4-83-45.1-166.5-89.1-250.5-132.2-84.1-43.1-168.7-85.1-253.8-126.1-85.1-41-170.7-81-256.8-119.9-86-38.9-172.5-76.7-259.5-113.5s-174.5-72.6-262.4-107.2c-87.8-34.7-176.1-68.3-264.8-100.8-88.7-32.5-177.7-63.9-267.2-94.2-89.4-30.4-179.2-59.6-269.4-87.7-90.2-28.2-180.7-55.2-271.5-81.1-90.8-25.9-182-50.7-273.4-74.4-91.5-23.7-183.2-46.3-275.1-67.8-92-21.4-184.3-41.7-276.8-61-92.5-19.2-185.2-37.2-278.1-54.2-92.9-16.9-186-32.7-279.4-47.4-93.3-14.7-186.7-28.2-280.4-40.6-76.4-10-153-19.3-229.7-27.8-76.6-8.6-153.3-16.298-230.1-23.4-76.8-6.996-153.7-13.301-230.6-18.801-77-5.496-153.9-10.297-231-14.297-77-4.101-154-7.3-231.1-9.902-77.1-2.5-154.2-4.199-231.3-5.199-77.1-1-154.3-1.297-231.4-.699-77.1.5-154.2 1.699-231.3 3.699-77.1 2.101-154.2 4.801-231.2 8.402-77.1 3.496-154.1 7.801-231.1 12.801-76.9 5.098-153.8 10.898-230.7 17.398-76.8 6.5-153.6 13.801-230.3 21.898-76.7 8-153.3 16.8-229.8 26.4-76.6 9.5-153 19.8-229.3 30.9-76.4 11-152.6 22.8-228.7 35.3-76.1 12.6-152.1 25.9-227.9 39.9-75.9 14-151.5 28.8-227.1 44.3-75.6 15.5-151 31.8-226.2 48.7-75.2 17-150.3 34.7-225.1 53.2-74.9 18.5-149.6 37.6-224.1 57.6-74.5 19.9-148.9 40.5-223 61.9s-148 43.5-221.6 66.3c-73.7 22.8-147.1 46.3-220.4 70.6-73.2 24.3-146.1 49.2-218.9 74.9-72.7 25.7-145.1 52.1-217.34 79.2-72.21 27.1-144.15 54.9-215.82 83.5-71.64 28.5-143.02 57.7-214.12 87.6-71.08 29.9-141.86 60.5-212.34 91.8-70.49 31.3-140.67 63.3-210.52 96-69.88 32.7-139.41 66-208.62 100.1-69.21 34-138.07 68.7-206.6 104.1-68.54 35.4-136.72 71.5-204.53 108.2a11300.586 11300.586 0 0 0-794.85 463.8c-258.68 165.3-510.21 340.9-754.61 526.7-77.05 59.3-153.36 119.5-228.94 180.6-75.56 61.2-150.35 123.2-224.4 186.2-74.03 63-147.27 126.8-219.74 191.6s-144.13 130.5-214.97 197c-70.84 66.6-140.85 134-210.04 202.3-69.19 68.2-137.52 137.3-204.99 207.3-67.48 70-134.09 140.7-199.83 212.3-65.74 71.6-130.58 144-194.53 217.2-63.95 73.2-126.99 147.2-189.12 221.9-62.11 74.8-123.31 150.3-183.59 226.6-60.26 76.2-119.58 153.2-177.97 230.9-58.36 77.7-115.76 156.2-172.19 235.3-56.45 79.2-111.9 159-166.36 239.5-54.48 80.5-107.95 161.6-160.43 243.5a11836.11 11836.11 0 0 0-154.36 247.3c-50.42 83.1-99.83 166.8-148.22 251.1-48.36 84.3-95.7 169.2-141.99 254.7-46.27 85.4-91.49 171.5-135.64 258.1-44.18 86.5-87.27 173.7-129.27 261.3-42.02 87.7-82.95 175.8-122.79 264.5-39.85 88.6-78.59 177.8-116.24 267.4-37.64 89.6-74.19 179.6-109.62 270.2-35.43 90.5-69.73 181.4-102.9 272.8-33.19 91.3-65.26 183.1-96.19 275.2-30.92 92.2-60.7 184.7-89.33 277.6-28.66 92.8-56.16 186.1-82.5 279.6-26.34 93.6-51.53 187.5-75.58 281.6-24.02 94.2-46.89 188.7-68.59 283.4-21.7 94.8-42.24 189.8-61.61 285-19.37 95.3-37.56 190.8-54.57 286.5-17 95.6-32.84 191.5-47.49 287.6-14.65 96.1-28.11 192.4-40.39 288.8 316.3 3.9 632.6 6 948.9 6.4 91.63-567.8 197.02-1135.6 360.32-1687.9 21-70 42.72-139.9 65.15-209.6 22.41-69.6 45.54-139 69.41-208.2 23.84-69.2 48.4-138.1 73.67-206.8 25.25-68.7 51.21-137.1 77.87-205.2 26.66-68.2 54.02-136 82.08-203.6 28.03-67.6 56.77-134.9 86.22-201.9 29.42-67 59.53-133.7 90.32-200.1 30.8-66.4 62.27-132.4 94.41-198.1 32.15-65.8 64.97-131.2 98.46-196.2 33.48-65.1 67.63-129.8 102.46-194.2 34.8-64.3 70.26-128.3 106.38-192 36.13-63.6 72.9-126.9 110.3-189.8 37.43-62.9 75.49-125.4 114.18-187.4 38.7-62.2 78.03-123.9 118-185.1 39.96-61.4 80.54-122.2 121.73-182.7 41.22-60.5 83.05-120.5 125.49-180.1 42.42-59.7 85.46-118.8 129.11-177.6 43.66-58.7 87.91-117 132.74-174.8 44.85-57.8 90.27-115.2 136.28-172.1 46.03-56.9 92.63-113.3 139.79-169.2 47.18-56 94.92-111.4 143.23-166.4 48.31-54.9 97.17-109.4 146.59-163.4 49.41-53.9 99.38-107.4 149.91-160.3 50.53-52.9 101.58-105.4 153.18-157.3 51.57-51.9 103.68-103.2 156.32-154 52.66-50.9 105.83-101.2 159.49-150.9 53.68-49.7 107.85-98.9 162.52-147.6 54.68-48.6 109.85-96.6 165.52-144.1 55.66-47.5 111.81-94.4 168.44-140.8 56.61-46.4 113.7-92.1 171.25-137.3 57.58-45.2 115.6-89.8 174.07-133.8 58.46-43.9 117.38-87.3 176.76-130.1 72.61-52.9 145.87-104.9 219.77-155.9 73.91-51.1 148.43-101.2 223.59-150.4 75.15-49.2 150.9-97.5 227.24-144.8 76.34-47.3 153.27-93.7 230.78-139.1 77.51-45.4 155.56-89.9 234.16-133.4 78.6-43.4 157.74-85.9 237.4-127.4 79.67-41.5 159.84-82 240.52-121.5 80.65-39.5 161.8-78 243.44-115.5 81.62-37.5 163.7-74 246.22-109.4 82.53-35.5 165.46-69.9 248.86-103.3 83.4-33.4 167.2-65.8 251.4-97.1 84.2-31.3 168.8-61.5 253.7-90.7 85-29.2 170.3-57.4 255.9-84.4 85.6-27.1 171.6-53.1 257.9-78.1 86.3-24.9 172.9-48.8 259.8-71.6 86.9-22.8 174-44.5 261.5-65.2 87.4-20.6 175-40.1 263-58.6 87.9-18.4 176-35.8 264.3-52 88.4-16.3 176.9-31.4 265.6-45.5 88.7-14 177.6-27 266.7-38.8 89-11.9 178.2-22.6 267.5-32.3 89.3-9.6 178.7-18.1 268.2-25.5 89.6-7.4 179.2-13.7 268.8-18.9 89.7-5.2 179.4-9.3 269.2-12.2 89.8-3 179.6-4.8 269.4-5.5 89.8-.7 179.6-.3 269.5 1.2 89.8 1.5 179.5 4.1 269.3 7.9 89.8 3.7 179.4 8.6 269.1 14.6 89.6 5.9 179.1 13 268.6 21.2 89.4 8.2 178.8 17.5 268 28 89.2 10.4 178.3 21.9 267.2 34.5 88.9 12.7 177.7 26.4 266.3 41.3 2746.1 440.7 5287.1 2072 6908.9 4318.4 65 90 128.4 181 190.4 273 61.9 92 122.4 185.1 181.3 279.1 58.9 94 116.3 188.9 172.2 284.7 55.8 95.9 110.1 192.6 162.8 290.3 52.7 97.6 103.8 196.1 153.3 295.4 49.5 99.2 97.4 199.3 143.6 300.1 46.3 100.9 90.9 202.5 133.8 304.8 43 102.3 84.3 205.2 123.9 308.9 39.5 103.6 77.4 207.9 113.6 312.7 36.2 104.9 70.7 210.3 103.5 316.3s63.8 212.5 93.1 319.5c29.4 107 56.9 214.5 82.7 322.4 25.9 107.9 49.9 216.1 72.2 324.8 22.3 108.7 42.8 217.7 61.6 327.1 18.7 109.3 35.7 218.9 50.9 328.8 15.2 109.9 28.6 220.1 40.2 330.4" style="fill:#4186ce;fill-opacity:1;fill-rule:nonzero;stroke:none" transform="matrix(.13333 0 0 -.13333 0 3710.32)"/></svg>